<?xml version="1.0" encoding="utf-8"?>
<!-- Generator: Adobe Illustrator 22.1.0, SVG Export Plug-In . SVG Version: 6.00 Build 0)  -->
<svg version="1.1" id="Layer_1" xmlns="http://www.w3.org/2000/svg" xmlns:xlink="http://www.w3.org/1999/xlink" x="0px" y="0px"
	 viewBox="0 0 500 91" style="enable-background:new 0 0 500 91;" xml:space="preserve">
<style type="text/css">
	.st0{fill:#FF6347;}
	.st1{fill:#5C271E;}
</style>
<g>
	<g>
		<path class="st0" d="M0.5,67V-0.3h23l12.6,43.4L48.4-0.3h23.1V67H55.7l0.5-50.4L41.7,67H30.3L15.8,16.6L16.3,67H0.5z"/>
		<path class="st0" d="M136.8,67h-15.1v-5.5c-2.7,4.9-9,7.2-14.9,7.2c-16,0-25.4-12.6-25.4-27c0-16.6,11.9-26.9,25.4-26.9
			c8.3,0,12.9,4,14.9,7.1v-5.4h15.1V67z M96.5,42c0,4.6,3.5,12.6,12.6,12.6c5.4,0,8.6-2.5,10.6-5.6c1.3-2,1.9-4.2,2.1-6.5
			s-0.3-4.6-1.3-6.6c-1.6-3.5-5.1-7-11.5-7C100.4,28.9,96.5,36.2,96.5,42L96.5,42z"/>
		<path class="st0" d="M148.5-0.3h15.1v15.1v6.4c2.7-4.6,7.8-6.4,13.2-6.4c7.7,0,12.3,2.7,15,7.2c2.7,4.4,3.5,10.4,3.5,16.8V67
			h-15.1V39.5c0-2.8-0.4-5.5-1.5-7.4c-1.3-1.9-3.3-3.2-6.6-3.2c-4.2,0-6.4,1.9-7.4,4.1c-1.1,2.2-1.1,4.6-1.1,5.9v28h-15.1V-0.3z"/>
		<path class="st0" d="M203.8,41.6c0-12.3,8.8-26.8,27.2-26.8s27.2,14.5,27.2,26.8s-8.8,26.8-27.2,26.8S203.8,54.1,203.8,41.6
			L203.8,41.6z M219,41.8c0,7.3,5.6,12.6,12.1,12.6c6.6,0,12.1-5.4,12.1-12.7c0-7.4-5.6-12.7-12.1-12.7C224.5,29,219,34.4,219,41.8
			L219,41.8z"/>
		<path class="st0" d="M319.3,60.9c0,7.6-0.5,12.4-3,16.7c-3.9,6.4-13.1,11.9-25.6,11.9c-17.6,0-24.2-10.6-25.2-17.7H283
			c1.1,2.5,3.1,3.7,4.8,4.4c1.8,0.6,3.5,0.6,4,0.6c5.7,0,12.3-3.5,12.3-12.3v-3c-1.7,2.9-6.1,7.2-14,7.2
			c-13.7,0-25.5-10.4-25.5-26.6c0-17.3,12.4-27.2,25.5-27.2c5.6,0,11.2,2,14.1,6.4v-4.7h15.1V60.9z M279.7,41.6
			c0,8,5.8,12.9,12.1,12.9c3.7,0,6.6-1.3,8.8-3.5c2.1-2.2,3.4-5.2,3.5-8.7c0-3.7-1.1-7.1-3.2-9.5c-2-2.5-5.1-3.9-9.1-3.9
			C285.4,29,279.7,34.2,279.7,41.6L279.7,41.6z"/>
		<path class="st0" d="M383.7,67h-15.1v-5.5c-2.7,4.9-9,7.2-14.9,7.2c-16,0-25.4-12.6-25.4-27c0-16.6,11.9-26.9,25.4-26.9
			c8.3,0,12.9,4,14.9,7.1v-5.4h15.1V67z M343.4,42c0,4.6,3.5,12.6,12.6,12.6c5.4,0,8.6-2.5,10.6-5.6c1.3-2,1.9-4.2,2.1-6.5
			c0.2-2.3-0.3-4.6-1.3-6.6c-1.6-3.5-5.1-7-11.5-7C347.2,28.9,343.4,36.2,343.4,42L343.4,42z"/>
		<path class="st0" d="M395.3,16.5h14.1v5.4c1.7-2.5,4.9-7.1,13.9-7.1c17,0,18.7,13.8,18.7,20.7V67h-15.1V39.4
			c0-5.6-1.2-10.5-7.9-10.5c-7.5,0-8.6,5.4-8.6,10.6V67h-15.1V16.5z"/>
		<path class="st0" d="M464.4,64.5l-18.7-48h16.1l10.3,29.3l9.6-29.3h16l-25.3,67.3h-16L464.4,64.5z"/>
	</g>
</g>
</svg>
